<svg xmlns="http://www.w3.org/2000/svg" width="415" height="479" viewbox="0 0 415 479" preserveAspectRatio="none"><rect x="0" y="0" width="100%" height="100%" fill="rgb(67, 88, 139)" /><polyline points="0,39.952638627922,23.066666666667,0,69.2,0,92.266666666667,39.952638627922,69.2,79.905277255844,23.066666666667,79.905277255844,0,39.952638627922" stroke="#000" stroke-opacity="0.02" fill-opacity="0.11533333333333" fill="#222" transform="translate(-46.133333333333, -39.952638627922)" /><polyline points="0,39.952638627922,23.066666666667,0,69.2,0,92.266666666667,39.952638627922,69.2,79.905277255844,23.066666666667,79.905277255844,0,39.952638627922" stroke="#000" stroke-opacity="0.02" fill-opacity="0.11533333333333" fill="#222" transform="translate(369.06666666667, -39.952638627922)" /><polyline points="0,39.952638627922,23.066666666667,0,69.2,0,92.266666666667,39.952638627922,69.2,79.905277255844,23.066666666667,79.905277255844,0,39.952638627922" stroke="#000" stroke-opacity="0.02" fill-opacity="0.11533333333333" fill="#222" transform="translate(-46.133333333333, 439.47902490714)" /><polyline points="0,39.952638627922,23.066666666667,0,69.2,0,92.266666666667,39.952638627922,69.2,79.905277255844,23.066666666667,79.905277255844,0,39.952638627922" stroke="#000" stroke-opacity="0.02" fill-opacity="0.11533333333333" fill="#222" transform="translate(369.06666666667, 439.47902490714)" /><polyline points="0,39.952638627922,23.066666666667,0,69.2,0,92.266666666667,39.952638627922,69.2,79.905277255844,23.066666666667,79.905277255844,0,39.952638627922" stroke="#000" stroke-opacity="0.02" fill-opacity="0.080666666666667" fill="#222" transform="translate(23.066666666667, 0)" /><polyline points="0,39.952638627922,23.066666666667,0,69.2,0,92.266666666667,39.952638627922,69.2,79.905277255844,23.066666666667,79.905277255844,0,39.952638627922" stroke="#000" stroke-opacity="0.02" fill-opacity="0.080666666666667" fill="#222" transform="translate(23.066666666667, 479.43166353507)" /><polyline points="0,39.952638627922,23.066666666667,0,69.2,0,92.266666666667,39.952638627922,69.2,79.905277255844,23.066666666667,79.905277255844,0,39.952638627922" stroke="#000" stroke-opacity="0.02" fill-opacity="0.028666666666667" fill="#222" transform="translate(92.266666666667, -39.952638627922)" /><polyline points="0,39.952638627922,23.066666666667,0,69.2,0,92.266666666667,39.952638627922,69.2,79.905277255844,23.066666666667,79.905277255844,0,39.952638627922" stroke="#000" stroke-opacity="0.02" fill-opacity="0.028666666666667" fill="#222" transform="translate(92.266666666667, 439.47902490714)" /><polyline points="0,39.952638627922,23.066666666667,0,69.2,0,92.266666666667,39.952638627922,69.2,79.905277255844,23.066666666667,79.905277255844,0,39.952638627922" stroke="#000" stroke-opacity="0.02" fill-opacity="0.089333333333333" fill="#ddd" transform="translate(161.46666666667, 0)" /><polyline points="0,39.952638627922,23.066666666667,0,69.2,0,92.266666666667,39.952638627922,69.2,79.905277255844,23.066666666667,79.905277255844,0,39.952638627922" stroke="#000" stroke-opacity="0.02" fill-opacity="0.089333333333333" fill="#ddd" transform="translate(161.46666666667, 479.43166353507)" /><polyline points="0,39.952638627922,23.066666666667,0,69.2,0,92.266666666667,39.952638627922,69.2,79.905277255844,23.066666666667,79.905277255844,0,39.952638627922" stroke="#000" stroke-opacity="0.02" fill-opacity="0.072" fill="#ddd" transform="translate(230.66666666667, -39.952638627922)" /><polyline points="0,39.952638627922,23.066666666667,0,69.2,0,92.266666666667,39.952638627922,69.2,79.905277255844,23.066666666667,79.905277255844,0,39.952638627922" stroke="#000" stroke-opacity="0.02" fill-opacity="0.072" fill="#ddd" transform="translate(230.66666666667, 439.47902490714)" /><polyline points="0,39.952638627922,23.066666666667,0,69.2,0,92.266666666667,39.952638627922,69.2,79.905277255844,23.066666666667,79.905277255844,0,39.952638627922" stroke="#000" stroke-opacity="0.02" fill-opacity="0.046" fill="#222" transform="translate(299.86666666667, 0)" /><polyline points="0,39.952638627922,23.066666666667,0,69.2,0,92.266666666667,39.952638627922,69.2,79.905277255844,23.066666666667,79.905277255844,0,39.952638627922" stroke="#000" stroke-opacity="0.02" fill-opacity="0.046" fill="#222" transform="translate(299.86666666667, 479.43166353507)" /><polyline points="0,39.952638627922,23.066666666667,0,69.2,0,92.266666666667,39.952638627922,69.2,79.905277255844,23.066666666667,79.905277255844,0,39.952638627922" stroke="#000" stroke-opacity="0.02" fill-opacity="0.037333333333333" fill="#ddd" transform="translate(-46.133333333333, 39.952638627922)" /><polyline points="0,39.952638627922,23.066666666667,0,69.2,0,92.266666666667,39.952638627922,69.2,79.905277255844,23.066666666667,79.905277255844,0,39.952638627922" stroke="#000" stroke-opacity="0.02" fill-opacity="0.037333333333333" fill="#ddd" transform="translate(369.06666666667, 39.952638627922)" /><polyline points="0,39.952638627922,23.066666666667,0,69.2,0,92.266666666667,39.952638627922,69.2,79.905277255844,23.066666666667,79.905277255844,0,39.952638627922" stroke="#000" stroke-opacity="0.02" fill-opacity="0.10666666666667" fill="#ddd" transform="translate(23.066666666667, 79.905277255844)" /><polyline points="0,39.952638627922,23.066666666667,0,69.2,0,92.266666666667,39.952638627922,69.2,79.905277255844,23.066666666667,79.905277255844,0,39.952638627922" stroke="#000" stroke-opacity="0.02" fill-opacity="0.098" fill="#222" transform="translate(92.266666666667, 39.952638627922)" /><polyline points="0,39.952638627922,23.066666666667,0,69.2,0,92.266666666667,39.952638627922,69.2,79.905277255844,23.066666666667,79.905277255844,0,39.952638627922" stroke="#000" stroke-opacity="0.02" fill-opacity="0.15" fill="#222" transform="translate(161.46666666667, 79.905277255844)" /><polyline points="0,39.952638627922,23.066666666667,0,69.2,0,92.266666666667,39.952638627922,69.2,79.905277255844,23.066666666667,79.905277255844,0,39.952638627922" stroke="#000" stroke-opacity="0.02" fill-opacity="0.080666666666667" fill="#222" transform="translate(230.66666666667, 39.952638627922)" /><polyline points="0,39.952638627922,23.066666666667,0,69.2,0,92.266666666667,39.952638627922,69.2,79.905277255844,23.066666666667,79.905277255844,0,39.952638627922" stroke="#000" stroke-opacity="0.02" fill-opacity="0.13266666666667" fill="#222" transform="translate(299.86666666667, 79.905277255844)" /><polyline points="0,39.952638627922,23.066666666667,0,69.2,0,92.266666666667,39.952638627922,69.2,79.905277255844,23.066666666667,79.905277255844,0,39.952638627922" stroke="#000" stroke-opacity="0.02" fill-opacity="0.080666666666667" fill="#222" transform="translate(-46.133333333333, 119.85791588377)" /><polyline points="0,39.952638627922,23.066666666667,0,69.2,0,92.266666666667,39.952638627922,69.2,79.905277255844,23.066666666667,79.905277255844,0,39.952638627922" stroke="#000" stroke-opacity="0.02" fill-opacity="0.080666666666667" fill="#222" transform="translate(369.06666666667, 119.85791588377)" /><polyline points="0,39.952638627922,23.066666666667,0,69.2,0,92.266666666667,39.952638627922,69.2,79.905277255844,23.066666666667,79.905277255844,0,39.952638627922" stroke="#000" stroke-opacity="0.02" fill-opacity="0.124" fill="#ddd" transform="translate(23.066666666667, 159.81055451169)" /><polyline points="0,39.952638627922,23.066666666667,0,69.2,0,92.266666666667,39.952638627922,69.2,79.905277255844,23.066666666667,79.905277255844,0,39.952638627922" stroke="#000" stroke-opacity="0.02" fill-opacity="0.072" fill="#ddd" transform="translate(92.266666666667, 119.85791588377)" /><polyline points="0,39.952638627922,23.066666666667,0,69.2,0,92.266666666667,39.952638627922,69.2,79.905277255844,23.066666666667,79.905277255844,0,39.952638627922" stroke="#000" stroke-opacity="0.02" fill-opacity="0.028666666666667" fill="#222" transform="translate(161.46666666667, 159.81055451169)" /><polyline points="0,39.952638627922,23.066666666667,0,69.2,0,92.266666666667,39.952638627922,69.2,79.905277255844,23.066666666667,79.905277255844,0,39.952638627922" stroke="#000" stroke-opacity="0.02" fill-opacity="0.13266666666667" fill="#222" transform="translate(230.66666666667, 119.85791588377)" /><polyline points="0,39.952638627922,23.066666666667,0,69.2,0,92.266666666667,39.952638627922,69.2,79.905277255844,23.066666666667,79.905277255844,0,39.952638627922" stroke="#000" stroke-opacity="0.02" fill-opacity="0.080666666666667" fill="#222" transform="translate(299.86666666667, 159.81055451169)" /><polyline points="0,39.952638627922,23.066666666667,0,69.2,0,92.266666666667,39.952638627922,69.2,79.905277255844,23.066666666667,79.905277255844,0,39.952638627922" stroke="#000" stroke-opacity="0.02" fill-opacity="0.054666666666667" fill="#ddd" transform="translate(-46.133333333333, 199.76319313961)" /><polyline points="0,39.952638627922,23.066666666667,0,69.2,0,92.266666666667,39.952638627922,69.2,79.905277255844,23.066666666667,79.905277255844,0,39.952638627922" stroke="#000" stroke-opacity="0.02" fill-opacity="0.054666666666667" fill="#ddd" transform="translate(369.06666666667, 199.76319313961)" /><polyline points="0,39.952638627922,23.066666666667,0,69.2,0,92.266666666667,39.952638627922,69.2,79.905277255844,23.066666666667,79.905277255844,0,39.952638627922" stroke="#000" stroke-opacity="0.02" fill-opacity="0.028666666666667" fill="#222" transform="translate(23.066666666667, 239.71583176753)" /><polyline points="0,39.952638627922,23.066666666667,0,69.2,0,92.266666666667,39.952638627922,69.2,79.905277255844,23.066666666667,79.905277255844,0,39.952638627922" stroke="#000" stroke-opacity="0.02" fill-opacity="0.063333333333333" fill="#222" transform="translate(92.266666666667, 199.76319313961)" /><polyline points="0,39.952638627922,23.066666666667,0,69.2,0,92.266666666667,39.952638627922,69.2,79.905277255844,23.066666666667,79.905277255844,0,39.952638627922" stroke="#000" stroke-opacity="0.02" fill-opacity="0.14133333333333" fill="#ddd" transform="translate(161.46666666667, 239.71583176753)" /><polyline points="0,39.952638627922,23.066666666667,0,69.2,0,92.266666666667,39.952638627922,69.2,79.905277255844,23.066666666667,79.905277255844,0,39.952638627922" stroke="#000" stroke-opacity="0.02" fill-opacity="0.098" fill="#222" transform="translate(230.66666666667, 199.76319313961)" /><polyline points="0,39.952638627922,23.066666666667,0,69.2,0,92.266666666667,39.952638627922,69.2,79.905277255844,23.066666666667,79.905277255844,0,39.952638627922" stroke="#000" stroke-opacity="0.02" fill-opacity="0.046" fill="#222" transform="translate(299.86666666667, 239.71583176753)" /><polyline points="0,39.952638627922,23.066666666667,0,69.2,0,92.266666666667,39.952638627922,69.2,79.905277255844,23.066666666667,79.905277255844,0,39.952638627922" stroke="#000" stroke-opacity="0.02" fill-opacity="0.089333333333333" fill="#ddd" transform="translate(-46.133333333333, 279.66847039545)" /><polyline points="0,39.952638627922,23.066666666667,0,69.2,0,92.266666666667,39.952638627922,69.2,79.905277255844,23.066666666667,79.905277255844,0,39.952638627922" stroke="#000" stroke-opacity="0.02" fill-opacity="0.089333333333333" fill="#ddd" transform="translate(369.06666666667, 279.66847039545)" /><polyline points="0,39.952638627922,23.066666666667,0,69.2,0,92.266666666667,39.952638627922,69.2,79.905277255844,23.066666666667,79.905277255844,0,39.952638627922" stroke="#000" stroke-opacity="0.02" fill-opacity="0.063333333333333" fill="#222" transform="translate(23.066666666667, 319.62110902338)" /><polyline points="0,39.952638627922,23.066666666667,0,69.2,0,92.266666666667,39.952638627922,69.2,79.905277255844,23.066666666667,79.905277255844,0,39.952638627922" stroke="#000" stroke-opacity="0.02" fill-opacity="0.072" fill="#ddd" transform="translate(92.266666666667, 279.66847039545)" /><polyline points="0,39.952638627922,23.066666666667,0,69.2,0,92.266666666667,39.952638627922,69.2,79.905277255844,23.066666666667,79.905277255844,0,39.952638627922" stroke="#000" stroke-opacity="0.02" fill-opacity="0.072" fill="#ddd" transform="translate(161.46666666667, 319.62110902338)" /><polyline points="0,39.952638627922,23.066666666667,0,69.2,0,92.266666666667,39.952638627922,69.2,79.905277255844,23.066666666667,79.905277255844,0,39.952638627922" stroke="#000" stroke-opacity="0.02" fill-opacity="0.072" fill="#ddd" transform="translate(230.66666666667, 279.66847039545)" /><polyline points="0,39.952638627922,23.066666666667,0,69.2,0,92.266666666667,39.952638627922,69.2,79.905277255844,23.066666666667,79.905277255844,0,39.952638627922" stroke="#000" stroke-opacity="0.02" fill-opacity="0.15" fill="#222" transform="translate(299.86666666667, 319.62110902338)" /><polyline points="0,39.952638627922,23.066666666667,0,69.2,0,92.266666666667,39.952638627922,69.2,79.905277255844,23.066666666667,79.905277255844,0,39.952638627922" stroke="#000" stroke-opacity="0.02" fill-opacity="0.124" fill="#ddd" transform="translate(-46.133333333333, 359.5737476513)" /><polyline points="0,39.952638627922,23.066666666667,0,69.2,0,92.266666666667,39.952638627922,69.2,79.905277255844,23.066666666667,79.905277255844,0,39.952638627922" stroke="#000" stroke-opacity="0.02" fill-opacity="0.124" fill="#ddd" transform="translate(369.06666666667, 359.5737476513)" /><polyline points="0,39.952638627922,23.066666666667,0,69.2,0,92.266666666667,39.952638627922,69.2,79.905277255844,23.066666666667,79.905277255844,0,39.952638627922" stroke="#000" stroke-opacity="0.02" fill-opacity="0.124" fill="#ddd" transform="translate(23.066666666667, 399.52638627922)" /><polyline points="0,39.952638627922,23.066666666667,0,69.2,0,92.266666666667,39.952638627922,69.2,79.905277255844,23.066666666667,79.905277255844,0,39.952638627922" stroke="#000" stroke-opacity="0.02" fill-opacity="0.15" fill="#222" transform="translate(92.266666666667, 359.5737476513)" /><polyline points="0,39.952638627922,23.066666666667,0,69.2,0,92.266666666667,39.952638627922,69.2,79.905277255844,23.066666666667,79.905277255844,0,39.952638627922" stroke="#000" stroke-opacity="0.02" fill-opacity="0.02" fill="#ddd" transform="translate(161.46666666667, 399.52638627922)" /><polyline points="0,39.952638627922,23.066666666667,0,69.2,0,92.266666666667,39.952638627922,69.2,79.905277255844,23.066666666667,79.905277255844,0,39.952638627922" stroke="#000" stroke-opacity="0.02" fill-opacity="0.080666666666667" fill="#222" transform="translate(230.66666666667, 359.5737476513)" /><polyline points="0,39.952638627922,23.066666666667,0,69.2,0,92.266666666667,39.952638627922,69.2,79.905277255844,23.066666666667,79.905277255844,0,39.952638627922" stroke="#000" stroke-opacity="0.02" fill-opacity="0.11533333333333" fill="#222" transform="translate(299.86666666667, 399.52638627922)" /></svg>